# xmcd CD database file generated by OrangeCD 4.3
#
# Track frame offsets:
#	150
#	9830
#	20555
#	31142
#	42589
#	52562
#	63373
#	72965
#	86136
#	97213
#	107410
#	118228
#
# Disc length: 1715 seconds
#
# Revision: 0
# Processed by: cddbd v1.4PL0 Copyright (c) Steve Scherf et al.
# Submitted via: OrangeCD 4.3
#
DISCID=9606b10c
DTITLE=Fats Domino - Man, That's All
DYEAR=2002
DGENRE=Soul
TTITLE0=Reelin' And Rockin'
TTITLE1=Kansas City
TTITLE2=Let Me Be Your Sweetheart
TTITLE3=Man, That's All
TTITLE4=The Girl I'm Gonna Marry
TTITLE5=There Goes My Heart Again
TTITLE6=Wigs
TTITLE7=Heartbreak Hill
TTITLE8=If You Don't Know What Love Is
TTITLE9=Just A Lonely Man
TTITLE10=I Gotta Right To Cry
TTITLE11=Bye Baby, Bye Bye
EXTD=
EXTT0=
EXTT1=
EXTT2=
EXTT3=
EXTT4=
EXTT5=
EXTT6=
EXTT7=
EXTT8=
EXTT9=
EXTT10=
EXTT11=
PLAYORDER=
